<?xml version="1.0" encoding="UTF-8" standalone="no"?>
<!DOCTYPE svg PUBLIC "-//W3C//DTD SVG 1.1//EN"
 "http://www.w3.org/Graphics/SVG/1.1/DTD/svg11.dtd">
<!-- Generated by graphviz version 2.42.4 (0)
 -->
<!-- Title: G Pages: 1 -->
<svg width="1472pt" height="248pt"
 viewBox="0.00 0.00 1472.00 248.00" xmlns="http://www.w3.org/2000/svg" xmlns:xlink="http://www.w3.org/1999/xlink">
<g id="graph0" class="graph" transform="scale(1 1) rotate(0) translate(18 230)">
<title>G</title>
<polygon fill="white" stroke="transparent" points="-18,18 -18,-230 1454,-230 1454,18 -18,18"/>
<text text-anchor="middle" x="718" y="-192" font-family="Arial" font-size="20.00">Knowledge and Memory Architecture</text>
<!-- sources -->
<g id="node1" class="node">
<title>sources</title>
<path fill="#f2f4f5" stroke="#5b6770" d="M152,-105C152,-105 12,-105 12,-105 6,-105 0,-99 0,-93 0,-93 0,-81 0,-81 0,-75 6,-69 12,-69 12,-69 152,-69 152,-69 158,-69 164,-75 164,-81 164,-81 164,-93 164,-93 164,-99 158,-105 152,-105"/>
<text text-anchor="middle" x="82" y="-84.5" font-family="Arial" font-size="10.00">Files • email • web • SAP context</text>
</g>
<!-- ingest -->
<g id="node2" class="node">
<title>ingest</title>
<path fill="#fff4d6" stroke="#5b6770" d="M356,-105C356,-105 212,-105 212,-105 206,-105 200,-99 200,-93 200,-93 200,-81 200,-81 200,-75 206,-69 212,-69 212,-69 356,-69 356,-69 362,-69 368,-75 368,-81 368,-81 368,-93 368,-93 368,-99 362,-105 356,-105"/>
<text text-anchor="middle" x="284" y="-90" font-family="Arial" font-size="10.00">Acquire, scan, preserve, normalize</text>
<text text-anchor="middle" x="284" y="-79" font-family="Arial" font-size="10.00">Docling / Crawl4AI</text>
</g>
<!-- sources&#45;&gt;ingest -->
<g id="edge1" class="edge">
<title>sources&#45;&gt;ingest</title>
<path fill="none" stroke="#66737d" d="M164.06,-87C172.54,-87 181.21,-87 189.82,-87"/>
<polygon fill="#66737d" stroke="#66737d" points="189.87,-90.5 199.87,-87 189.87,-83.5 189.87,-90.5"/>
</g>
<!-- pg -->
<g id="node3" class="node">
<title>pg</title>
<path fill="#ddf3f0" stroke="#5b6770" d="M588,-105C588,-105 416,-105 416,-105 410,-105 404,-99 404,-93 404,-93 404,-81 404,-81 404,-75 410,-69 416,-69 416,-69 588,-69 588,-69 594,-69 600,-75 600,-81 600,-81 600,-93 600,-93 600,-99 594,-105 588,-105"/>
<text text-anchor="middle" x="502" y="-90" font-family="Arial" font-size="10.00">PostgreSQL</text>
<text text-anchor="middle" x="502" y="-79" font-family="Arial" font-size="10.00">Canonical artifacts, metadata, jobs, audit</text>
</g>
<!-- ingest&#45;&gt;pg -->
<g id="edge2" class="edge">
<title>ingest&#45;&gt;pg</title>
<path fill="none" stroke="#66737d" d="M368.2,-87C376.57,-87 385.15,-87 393.73,-87"/>
<polygon fill="#66737d" stroke="#66737d" points="393.78,-90.5 403.78,-87 393.78,-83.5 393.78,-90.5"/>
</g>
<!-- outbox -->
<g id="node4" class="node">
<title>outbox</title>
<path fill="#e9f2fb" stroke="#5b6770" d="M749,-128C749,-128 648,-128 648,-128 642,-128 636,-122 636,-116 636,-116 636,-104 636,-104 636,-98 642,-92 648,-92 648,-92 749,-92 749,-92 755,-92 761,-98 761,-104 761,-104 761,-116 761,-116 761,-122 755,-128 749,-128"/>
<text text-anchor="middle" x="698.5" y="-113" font-family="Arial" font-size="10.00">Transactional outbox</text>
<text text-anchor="middle" x="698.5" y="-102" font-family="Arial" font-size="10.00">Idempotent indexing jobs</text>
</g>
<!-- pg&#45;&gt;outbox -->
<g id="edge3" class="edge">
<title>pg&#45;&gt;outbox</title>
<path fill="none" stroke="#66737d" d="M600.25,-98.5C608.89,-99.52 617.53,-100.54 625.9,-101.53"/>
<polygon fill="#66737d" stroke="#66737d" points="625.62,-105.02 635.96,-102.72 626.44,-98.07 625.62,-105.02"/>
</g>
<!-- retrieve -->
<g id="node8" class="node">
<title>retrieve</title>
<path fill="#ddf3f0" stroke="#5b6770" d="M1224,-105C1224,-105 1052,-105 1052,-105 1046,-105 1040,-99 1040,-93 1040,-93 1040,-81 1040,-81 1040,-75 1046,-69 1052,-69 1052,-69 1224,-69 1224,-69 1230,-69 1236,-75 1236,-81 1236,-81 1236,-93 1236,-93 1236,-99 1230,-105 1224,-105"/>
<text text-anchor="middle" x="1138" y="-90" font-family="Arial" font-size="10.00">Context assembly</text>
<text text-anchor="middle" x="1138" y="-79" font-family="Arial" font-size="10.00">Policy&#45;aware ranking, citations, hydration</text>
</g>
<!-- pg&#45;&gt;retrieve -->
<g id="edge6" class="edge">
<title>pg&#45;&gt;retrieve</title>
<path fill="none" stroke="#66737d" d="M600.33,-83.74C612.34,-83.43 624.45,-83.17 636,-83 799.54,-80.54 840.46,-80.54 1004,-83 1012.3,-83.12 1020.89,-83.29 1029.53,-83.49"/>
<polygon fill="#66737d" stroke="#66737d" points="1029.59,-86.99 1039.67,-83.74 1029.76,-80 1029.59,-86.99"/>
</g>
<!-- qd -->
<g id="node5" class="node">
<title>qd</title>
<path fill="#e9f2fb" stroke="#5b6770" d="M972,-182C972,-182 829,-182 829,-182 823,-182 817,-176 817,-170 817,-170 817,-158 817,-158 817,-152 823,-146 829,-146 829,-146 972,-146 972,-146 978,-146 984,-152 984,-158 984,-158 984,-170 984,-170 984,-176 978,-182 972,-182"/>
<text text-anchor="middle" x="900.5" y="-167" font-family="Arial" font-size="10.00">Qdrant</text>
<text text-anchor="middle" x="900.5" y="-156" font-family="Arial" font-size="10.00">Dense + sparse vectors and filters</text>
</g>
<!-- outbox&#45;&gt;qd -->
<g id="edge4" class="edge">
<title>outbox&#45;&gt;qd</title>
<path fill="none" stroke="#66737d" d="M761.1,-127.19C773,-130.47 785.38,-133.86 797,-137 804.7,-139.08 812.74,-141.23 820.77,-143.37"/>
<polygon fill="#66737d" stroke="#66737d" points="819.99,-146.78 830.55,-145.96 821.78,-140.02 819.99,-146.78"/>
</g>
<!-- lr -->
<g id="node6" class="node">
<title>lr</title>
<path fill="#e9f2fb" stroke="#5b6770" d="M992,-128C992,-128 809,-128 809,-128 803,-128 797,-122 797,-116 797,-116 797,-104 797,-104 797,-98 803,-92 809,-92 809,-92 992,-92 992,-92 998,-92 1004,-98 1004,-104 1004,-104 1004,-116 1004,-116 1004,-122 998,-128 992,-128"/>
<text text-anchor="middle" x="900.5" y="-113" font-family="Arial" font-size="10.00">LightRAG</text>
<text text-anchor="middle" x="900.5" y="-102" font-family="Arial" font-size="10.00">Entities, relationships, graph&#45;aware retrieval</text>
</g>
<!-- outbox&#45;&gt;lr -->
<g id="edge5" class="edge">
<title>outbox&#45;&gt;lr</title>
<path fill="none" stroke="#66737d" d="M761.14,-110C769.31,-110 777.87,-110 786.58,-110"/>
<polygon fill="#66737d" stroke="#66737d" points="786.84,-113.5 796.84,-110 786.84,-106.5 786.84,-113.5"/>
</g>
<!-- qd&#45;&gt;retrieve -->
<g id="edge7" class="edge">
<title>qd&#45;&gt;retrieve</title>
<path fill="none" stroke="#66737d" d="M973.73,-145.96C983.94,-143.13 994.27,-140.1 1004,-137 1030.23,-128.64 1058.88,-118.06 1082.84,-108.79"/>
<polygon fill="#66737d" stroke="#66737d" points="1084.41,-111.94 1092.46,-105.05 1081.87,-105.41 1084.41,-111.94"/>
</g>
<!-- lr&#45;&gt;retrieve -->
<g id="edge8" class="edge">
<title>lr&#45;&gt;retrieve</title>
<path fill="none" stroke="#66737d" d="M1004.11,-99.98C1012.66,-99.14 1021.32,-98.3 1029.91,-97.46"/>
<polygon fill="#66737d" stroke="#66737d" points="1030.33,-100.93 1039.94,-96.48 1029.65,-93.97 1030.33,-100.93"/>
</g>
<!-- pref -->
<g id="node7" class="node">
<title>pref</title>
<path fill="#f7e8f1" stroke="#5b6770" stroke-dasharray="5,2" d="M971.5,-36C971.5,-36 829.5,-36 829.5,-36 823.5,-36 817.5,-30 817.5,-24 817.5,-24 817.5,-12 817.5,-12 817.5,-6 823.5,0 829.5,0 829.5,0 971.5,0 971.5,0 977.5,0 983.5,-6 983.5,-12 983.5,-12 983.5,-24 983.5,-24 983.5,-30 977.5,-36 971.5,-36"/>
<text text-anchor="middle" x="900.5" y="-21" font-family="Arial" font-size="10.00">Optional preference memory</text>
<text text-anchor="middle" x="900.5" y="-10" font-family="Arial" font-size="10.00">Curated defaults and user choices</text>
</g>
<!-- pref&#45;&gt;retrieve -->
<g id="edge9" class="edge">
<title>pref&#45;&gt;retrieve</title>
<path fill="none" stroke="#66737d" stroke-dasharray="5,2" d="M963.07,-36.04C994.44,-45.23 1032.76,-56.46 1065.44,-66.03"/>
<polygon fill="#66737d" stroke="#66737d" points="1064.8,-69.49 1075.38,-68.95 1066.77,-62.78 1064.8,-69.49"/>
</g>
<!-- agent -->
<g id="node9" class="node">
<title>agent</title>
<path fill="#ddebfa" stroke="#5b6770" d="M1424,-105C1424,-105 1284,-105 1284,-105 1278,-105 1272,-99 1272,-93 1272,-93 1272,-81 1272,-81 1272,-75 1278,-69 1284,-69 1284,-69 1424,-69 1424,-69 1430,-69 1436,-75 1436,-81 1436,-81 1436,-93 1436,-93 1436,-99 1430,-105 1424,-105"/>
<text text-anchor="middle" x="1354" y="-84.5" font-family="Arial" font-size="10.00">LangGraph planning and response</text>
</g>
<!-- retrieve&#45;&gt;agent -->
<g id="edge10" class="edge">
<title>retrieve&#45;&gt;agent</title>
<path fill="none" stroke="#66737d" d="M1236.29,-87C1244.77,-87 1253.33,-87 1261.76,-87"/>
<polygon fill="#66737d" stroke="#66737d" points="1261.96,-90.5 1271.96,-87 1261.96,-83.5 1261.96,-90.5"/>
</g>
</g>
</svg>
