<?xml version="1.0" encoding="UTF-8" standalone="no"?>
<!DOCTYPE svg PUBLIC "-//W3C//DTD SVG 1.1//EN"
 "http://www.w3.org/Graphics/SVG/1.1/DTD/svg11.dtd">
<!-- Generated by graphviz version 2.42.4 (0)
 -->
<!-- Title: G Pages: 1 -->
<svg width="1578pt" height="770pt"
 viewBox="0.00 0.00 1577.90 770.40" xmlns="http://www.w3.org/2000/svg" xmlns:xlink="http://www.w3.org/1999/xlink">
<g id="graph0" class="graph" transform="scale(1 1) rotate(0) translate(25.2 745.2)">
<title>G</title>
<polygon fill="white" stroke="transparent" points="-25.2,25.2 -25.2,-745.2 1552.7,-745.2 1552.7,25.2 -25.2,25.2"/>
<text text-anchor="middle" x="763.75" y="-698.4" font-family="Arial" font-size="22.00">HANA&#45;X Copilot Solution Architecture — Intent&#45;to&#45;Action Reference for SAP S/4HANA</text>
<g id="clust1" class="cluster">
<title>cluster_context</title>
<path fill="#f3fbf9" stroke="#8cbdb5" stroke-width="1.4" d="M20,-229C20,-229 1112,-229 1112,-229 1118,-229 1124,-235 1124,-241 1124,-241 1124,-293 1124,-293 1124,-299 1118,-305 1112,-305 1112,-305 20,-305 20,-305 14,-305 8,-299 8,-293 8,-293 8,-241 8,-241 8,-235 14,-229 20,-229"/>
<text text-anchor="middle" x="566" y="-290.6" font-family="Arial" font-size="13.00">Policy, Context &amp; Planning</text>
</g>
<!-- user -->
<g id="node1" class="node">
<title>user</title>
<path fill="#f2f4f5" stroke="#5b6770" stroke-width="1.2" d="M461.5,-688C461.5,-688 154.5,-688 154.5,-688 148.5,-688 142.5,-682 142.5,-676 142.5,-676 142.5,-662 142.5,-662 142.5,-656 148.5,-650 154.5,-650 154.5,-650 461.5,-650 461.5,-650 467.5,-650 473.5,-656 473.5,-662 473.5,-662 473.5,-676 473.5,-676 473.5,-682 467.5,-688 461.5,-688"/>
<text text-anchor="middle" x="308" y="-672.2" font-family="Arial" font-size="11.00">Business User</text>
<text text-anchor="middle" x="308" y="-660.2" font-family="Arial" font-size="11.00">Natural language, structured input, approval</text>
</g>
<!-- experience -->
<g id="node2" class="node">
<title>experience</title>
<path fill="#e9f2fb" stroke="#5b6770" stroke-width="1.2" d="M483,-609C483,-609 133,-609 133,-609 127,-609 121,-603 121,-597 121,-597 121,-583 121,-583 121,-577 127,-571 133,-571 133,-571 483,-571 483,-571 489,-571 495,-577 495,-583 495,-583 495,-597 495,-597 495,-603 489,-609 483,-609"/>
<text text-anchor="middle" x="308" y="-593.2" font-family="Arial" font-size="11.00">CopilotKit Experience Layer</text>
<text text-anchor="middle" x="308" y="-581.2" font-family="Arial" font-size="11.00">React / Next.js, chat, generative UI, shared state</text>
</g>
<!-- user&#45;&gt;experience -->
<g id="edge1" class="edge">
<title>user&#45;&gt;experience</title>
<path fill="none" stroke="#66737d" stroke-width="1.2" d="M308,-649.75C308,-640.07 308,-627.99 308,-617.31"/>
<polygon fill="#66737d" stroke="#66737d" stroke-width="1.2" points="310.8,-617.12 308,-609.12 305.2,-617.12 310.8,-617.12"/>
</g>
<!-- agui -->
<g id="node3" class="node">
<title>agui</title>
<path fill="#e9f2fb" stroke="#5b6770" stroke-width="1.2" d="M483,-530C483,-530 133,-530 133,-530 127,-530 121,-524 121,-518 121,-518 121,-504 121,-504 121,-498 127,-492 133,-492 133,-492 483,-492 483,-492 489,-492 495,-498 495,-504 495,-504 495,-518 495,-518 495,-524 489,-530 483,-530"/>
<text text-anchor="middle" x="308" y="-514.2" font-family="Arial" font-size="11.00">AG&#45;UI Interaction Protocol</text>
<text text-anchor="middle" x="308" y="-502.2" font-family="Arial" font-size="11.00">Bidirectional event stream, state, tools, interrupts</text>
</g>
<!-- experience&#45;&gt;agui -->
<g id="edge2" class="edge">
<title>experience&#45;&gt;agui</title>
<path fill="none" stroke="#66737d" stroke-width="1.2" d="M308,-570.75C308,-561.07 308,-548.99 308,-538.31"/>
<polygon fill="#66737d" stroke="#66737d" stroke-width="1.2" points="310.8,-538.12 308,-530.12 305.2,-538.12 310.8,-538.12"/>
</g>
<!-- runtime -->
<g id="node4" class="node">
<title>runtime</title>
<path fill="#ddebfa" stroke="#5b6770" stroke-width="1.2" d="M574,-451C574,-451 224,-451 224,-451 218,-451 212,-445 212,-439 212,-439 212,-425 212,-425 212,-419 218,-413 224,-413 224,-413 574,-413 574,-413 580,-413 586,-419 586,-425 586,-425 586,-439 586,-439 586,-445 580,-451 574,-451"/>
<text text-anchor="middle" x="399" y="-435.2" font-family="Arial" font-size="11.00">LangGraph Agent Runtime</text>
<text text-anchor="middle" x="399" y="-423.2" font-family="Arial" font-size="11.00">Durable, stateful orchestration and checkpoints</text>
</g>
<!-- agui&#45;&gt;runtime -->
<g id="edge3" class="edge">
<title>agui&#45;&gt;runtime</title>
<path fill="none" stroke="#66737d" stroke-width="1.2" d="M329.57,-491.75C342.03,-481.2 357.85,-467.82 371.24,-456.49"/>
<polygon fill="#66737d" stroke="#66737d" stroke-width="1.2" points="373.29,-458.42 377.59,-451.12 369.67,-454.15 373.29,-458.42"/>
</g>
<!-- refine -->
<g id="node5" class="node">
<title>refine</title>
<path fill="#ddf3f0" stroke="#5b6770" stroke-width="1.2" d="M743,-372C743,-372 393,-372 393,-372 387,-372 381,-366 381,-360 381,-360 381,-346 381,-346 381,-340 387,-334 393,-334 393,-334 743,-334 743,-334 749,-334 755,-340 755,-346 755,-346 755,-360 755,-360 755,-366 749,-372 743,-372"/>
<text text-anchor="middle" x="568" y="-356.2" font-family="Arial" font-size="11.00">Intent Refinement &amp; Clarification Service</text>
<text text-anchor="middle" x="568" y="-344.2" font-family="Arial" font-size="11.00">Entity resolution, missing&#45;field questions, options, confirmation</text>
</g>
<!-- runtime&#45;&gt;refine -->
<g id="edge4" class="edge">
<title>runtime&#45;&gt;refine</title>
<path fill="none" stroke="#66737d" stroke-width="1.2" d="M438.62,-412.95C463.22,-401.74 494.96,-387.28 520.85,-375.48"/>
<polygon fill="#66737d" stroke="#66737d" stroke-width="1.2" points="522.21,-377.94 528.33,-372.07 519.89,-372.84 522.21,-377.94"/>
</g>
<!-- pg -->
<g id="node7" class="node">
<title>pg</title>
<path fill="white" stroke="#5b6770" stroke-width="1.2" d="M607.5,-275C607.5,-275 438.5,-275 438.5,-275 432.5,-275 426.5,-269 426.5,-263 426.5,-263 426.5,-249 426.5,-249 426.5,-243 432.5,-237 438.5,-237 438.5,-237 607.5,-237 607.5,-237 613.5,-237 619.5,-243 619.5,-249 619.5,-249 619.5,-263 619.5,-263 619.5,-269 613.5,-275 607.5,-275"/>
<text text-anchor="middle" x="523" y="-259.2" font-family="Arial" font-size="11.00">PostgreSQL</text>
<text text-anchor="middle" x="523" y="-247.2" font-family="Arial" font-size="11.00">Authoritative metadata, state, audit</text>
</g>
<!-- runtime&#45;&gt;pg -->
<g id="edge9" class="edge">
<title>runtime&#45;&gt;pg</title>
<path fill="none" stroke="#66737d" stroke-width="1.2" stroke-dasharray="5,2" d="M384.78,-412.69C370.8,-392.29 353.62,-358.89 369,-334 375.13,-324.08 431.06,-297.62 473.77,-278.48"/>
<polygon fill="#66737d" stroke="#66737d" stroke-width="1.2" points="475.14,-280.94 481.31,-275.12 472.86,-275.82 475.14,-280.94"/>
</g>
<!-- policy -->
<g id="node6" class="node">
<title>policy</title>
<path fill="white" stroke="#5b6770" stroke-width="1.2" d="M389,-275C389,-275 235,-275 235,-275 229,-275 223,-269 223,-263 223,-263 223,-249 223,-249 223,-243 229,-237 235,-237 235,-237 389,-237 389,-237 395,-237 401,-243 401,-249 401,-249 401,-263 401,-263 401,-269 395,-275 389,-275"/>
<text text-anchor="middle" x="312" y="-259.2" font-family="Arial" font-size="11.00">Policy &amp; Approval</text>
<text text-anchor="middle" x="312" y="-247.2" font-family="Arial" font-size="11.00">Rules, thresholds, allowed tools</text>
</g>
<!-- refine&#45;&gt;policy -->
<g id="edge5" class="edge">
<title>refine&#45;&gt;policy</title>
<path fill="none" stroke="#66737d" stroke-width="1.2" d="M501.34,-333.93C473.98,-325.92 442.17,-315.86 414,-305 394.19,-297.36 372.85,-287.57 354.83,-278.83"/>
<polygon fill="#66737d" stroke="#66737d" stroke-width="1.2" points="355.75,-276.16 347.33,-275.16 353.28,-281.19 355.75,-276.16"/>
</g>
<!-- refine&#45;&gt;pg -->
<g id="edge10" class="edge">
<title>refine&#45;&gt;pg</title>
<path fill="none" stroke="#66737d" stroke-width="1.2" stroke-dasharray="5,2" d="M559.32,-333.68C552.48,-319.23 542.84,-298.88 535.21,-282.78"/>
<polygon fill="#66737d" stroke="#66737d" stroke-width="1.2" points="537.61,-281.29 531.65,-275.26 532.54,-283.69 537.61,-281.29"/>
</g>
<!-- tools -->
<g id="node11" class="node">
<title>tools</title>
<path fill="#ddf3f0" stroke="#5b6770" stroke-width="1.2" d="M1284,-196C1284,-196 934,-196 934,-196 928,-196 922,-190 922,-184 922,-184 922,-170 922,-170 922,-164 928,-158 934,-158 934,-158 1284,-158 1284,-158 1290,-158 1296,-164 1296,-170 1296,-170 1296,-184 1296,-184 1296,-190 1290,-196 1284,-196"/>
<text text-anchor="middle" x="1109" y="-180.2" font-family="Arial" font-size="11.00">Governed Tool Execution Layer</text>
<text text-anchor="middle" x="1109" y="-168.2" font-family="Arial" font-size="11.00">MCP adapters, schema validation, authorization, audit</text>
</g>
<!-- policy&#45;&gt;tools -->
<g id="edge6" class="edge">
<title>policy&#45;&gt;tools</title>
<path fill="none" stroke="#66737d" stroke-width="1.2" d="M375.57,-236.96C388.22,-233.89 401.46,-231.04 414,-229 581.28,-201.76 773.59,-189.06 913.45,-183.15"/>
<polygon fill="#66737d" stroke="#66737d" stroke-width="1.2" points="913.87,-185.93 921.75,-182.8 913.64,-180.34 913.87,-185.93"/>
</g>
<!-- qd -->
<g id="node8" class="node">
<title>qd</title>
<path fill="white" stroke="#5b6770" stroke-width="1.2" d="M892.5,-275C892.5,-275 733.5,-275 733.5,-275 727.5,-275 721.5,-269 721.5,-263 721.5,-263 721.5,-249 721.5,-249 721.5,-243 727.5,-237 733.5,-237 733.5,-237 892.5,-237 892.5,-237 898.5,-237 904.5,-243 904.5,-249 904.5,-249 904.5,-263 904.5,-263 904.5,-269 898.5,-275 892.5,-275"/>
<text text-anchor="middle" x="813" y="-259.2" font-family="Arial" font-size="11.00">Qdrant</text>
<text text-anchor="middle" x="813" y="-247.2" font-family="Arial" font-size="11.00">Rebuildable vector / hybrid index</text>
</g>
<!-- pg&#45;&gt;qd -->
<g id="edge11" class="edge">
<title>pg&#45;&gt;qd</title>
<path fill="none" stroke="#66737d" stroke-width="1.2" stroke-dasharray="5,2" d="M619.57,-256C649.66,-256 682.91,-256 713.22,-256"/>
<polygon fill="#66737d" stroke="#66737d" stroke-width="1.2" points="713.28,-258.8 721.28,-256 713.28,-253.2 713.28,-258.8"/>
<text text-anchor="middle" x="670.5" y="-261.8" font-family="Arial" font-size="9.00">outbox / index jobs</text>
</g>
<!-- lr -->
<g id="node9" class="node">
<title>lr</title>
<path fill="white" stroke="#5b6770" stroke-width="1.2" d="M1103.5,-275C1103.5,-275 966.5,-275 966.5,-275 960.5,-275 954.5,-269 954.5,-263 954.5,-263 954.5,-249 954.5,-249 954.5,-243 960.5,-237 966.5,-237 966.5,-237 1103.5,-237 1103.5,-237 1109.5,-237 1115.5,-243 1115.5,-249 1115.5,-249 1115.5,-263 1115.5,-263 1115.5,-269 1109.5,-275 1103.5,-275"/>
<text text-anchor="middle" x="1035" y="-259.2" font-family="Arial" font-size="11.00">LightRAG</text>
<text text-anchor="middle" x="1035" y="-247.2" font-family="Arial" font-size="11.00">Relationship&#45;aware retrieval</text>
</g>
<!-- pg&#45;&gt;lr -->
<g id="edge12" class="edge">
<title>pg&#45;&gt;lr</title>
<path fill="none" stroke="#66737d" stroke-width="1.2" stroke-dasharray="5,2" d="M568.54,-275.03C608.16,-290.5 667.52,-311.08 721.5,-319.5 801.86,-332.04 825.24,-337.76 904.5,-319.5 938.13,-311.75 973.14,-294.12 998.41,-279.39"/>
<polygon fill="#66737d" stroke="#66737d" stroke-width="1.2" points="1000.15,-281.62 1005.6,-275.13 997.3,-276.8 1000.15,-281.62"/>
</g>
<!-- qd&#45;&gt;lr -->
<g id="edge13" class="edge">
<title>qd&#45;&gt;lr</title>
<path fill="none" stroke="#66737d" stroke-width="1.2" stroke-dasharray="5,2" d="M904.92,-256C918.73,-256 932.53,-256 946.34,-256"/>
<polygon fill="#66737d" stroke="#66737d" stroke-width="1.2" points="946.46,-258.8 954.46,-256 946.46,-253.2 946.46,-258.8"/>
</g>
<!-- mem -->
<g id="node10" class="node">
<title>mem</title>
<path fill="white" stroke="#5b6770" stroke-width="1.2" stroke-dasharray="5,2" d="M186,-275C186,-275 28,-275 28,-275 22,-275 16,-269 16,-263 16,-263 16,-249 16,-249 16,-243 22,-237 28,-237 28,-237 186,-237 186,-237 192,-237 198,-243 198,-249 198,-249 198,-263 198,-263 198,-269 192,-275 186,-275"/>
<text text-anchor="middle" x="107" y="-259.2" font-family="Arial" font-size="11.00">Preference Memory</text>
<text text-anchor="middle" x="107" y="-247.2" font-family="Arial" font-size="11.00">Optional; governed user defaults</text>
</g>
<!-- apis -->
<g id="node12" class="node">
<title>apis</title>
<path fill="#eceff1" stroke="#5b6770" stroke-width="1.2" d="M1396,-117C1396,-117 1046,-117 1046,-117 1040,-117 1034,-111 1034,-105 1034,-105 1034,-91 1034,-91 1034,-85 1040,-79 1046,-79 1046,-79 1396,-79 1396,-79 1402,-79 1408,-85 1408,-91 1408,-91 1408,-105 1408,-105 1408,-111 1402,-117 1396,-117"/>
<text text-anchor="middle" x="1221" y="-101.2" font-family="Arial" font-size="11.00">Released SAP S/4HANA APIs, OData Services &amp; Events</text>
<text text-anchor="middle" x="1221" y="-89.2" font-family="Arial" font-size="11.00">Edition&#45; and release&#45;appropriate interfaces</text>
</g>
<!-- tools&#45;&gt;apis -->
<g id="edge7" class="edge">
<title>tools&#45;&gt;apis</title>
<path fill="none" stroke="#66737d" stroke-width="1.2" d="M1135.26,-157.95C1150.87,-147.21 1170.83,-133.49 1187.57,-121.99"/>
<polygon fill="#66737d" stroke="#66737d" stroke-width="1.2" points="1189.51,-124.05 1194.52,-117.21 1186.34,-119.43 1189.51,-124.05"/>
</g>
<!-- sap -->
<g id="node13" class="node">
<title>sap</title>
<path fill="white" stroke="#5b6770" stroke-width="1.8" d="M1396,-38C1396,-38 1046,-38 1046,-38 1040,-38 1034,-32 1034,-26 1034,-26 1034,-12 1034,-12 1034,-6 1040,0 1046,0 1046,0 1396,0 1396,0 1402,0 1408,-6 1408,-12 1408,-12 1408,-26 1408,-26 1408,-32 1402,-38 1396,-38"/>
<text text-anchor="middle" x="1221" y="-22.2" font-family="Arial" font-size="11.00">SAP S/4HANA</text>
<text text-anchor="middle" x="1221" y="-10.2" font-family="Arial" font-size="11.00">Enterprise System of Record</text>
</g>
<!-- apis&#45;&gt;sap -->
<g id="edge8" class="edge">
<title>apis&#45;&gt;sap</title>
<path fill="none" stroke="#66737d" stroke-width="1.2" d="M1221,-78.75C1221,-69.07 1221,-56.99 1221,-46.31"/>
<polygon fill="#66737d" stroke="#66737d" stroke-width="1.2" points="1223.8,-46.12 1221,-38.12 1218.2,-46.12 1223.8,-46.12"/>
</g>
<!-- ollama -->
<g id="node14" class="node">
<title>ollama</title>
<path fill="#fff4d6" stroke="#5b6770" stroke-width="1.2" d="M778,-530C778,-530 532,-530 532,-530 526,-530 520,-524 520,-518 520,-518 520,-504 520,-504 520,-498 526,-492 532,-492 532,-492 778,-492 778,-492 784,-492 790,-498 790,-504 790,-504 790,-518 790,-518 790,-524 784,-530 778,-530"/>
<text text-anchor="middle" x="655" y="-514.2" font-family="Arial" font-size="11.00">On&#45;premises model runtime</text>
<text text-anchor="middle" x="655" y="-502.2" font-family="Arial" font-size="11.00">Ollama + benchmark&#45;selected open&#45;weight models</text>
</g>
<!-- ollama&#45;&gt;runtime -->
<g id="edge14" class="edge">
<title>ollama&#45;&gt;runtime</title>
<path fill="none" stroke="#66737d" stroke-width="1.2" stroke-dasharray="5,2" d="M594.98,-491.95C556.6,-480.4 506.74,-465.41 466.91,-453.43"/>
<polygon fill="#66737d" stroke="#66737d" stroke-width="1.2" points="467.56,-450.7 459.09,-451.07 465.94,-456.06 467.56,-450.7"/>
</g>
<!-- ollama&#45;&gt;refine -->
<g id="edge15" class="edge">
<title>ollama&#45;&gt;refine</title>
<path fill="none" stroke="#66737d" stroke-width="1.2" stroke-dasharray="5,2" d="M644.85,-491.8C629.33,-463.97 599.66,-410.76 582.07,-379.23"/>
<polygon fill="#66737d" stroke="#66737d" stroke-width="1.2" points="584.43,-377.71 578.09,-372.08 579.54,-380.44 584.43,-377.71"/>
</g>
<!-- ollama&#45;&gt;lr -->
<g id="edge16" class="edge">
<title>ollama&#45;&gt;lr</title>
<path fill="none" stroke="#66737d" stroke-width="1.2" stroke-dasharray="5,2" d="M696.73,-491.86C749.45,-468.03 841.86,-423.16 913,-372 951.12,-344.58 989.65,-306.05 1012.93,-281.3"/>
<polygon fill="#66737d" stroke="#66737d" stroke-width="1.2" points="1015.1,-283.08 1018.51,-275.32 1011,-279.26 1015.1,-283.08"/>
</g>
<!-- ingest -->
<g id="node15" class="node">
<title>ingest</title>
<path fill="#fff4d6" stroke="#5b6770" stroke-width="1.2" d="M888,-372C888,-372 792,-372 792,-372 786,-372 780,-366 780,-360 780,-360 780,-346 780,-346 780,-340 786,-334 792,-334 792,-334 888,-334 888,-334 894,-334 900,-340 900,-346 900,-346 900,-360 900,-360 900,-366 894,-372 888,-372"/>
<text text-anchor="middle" x="840" y="-356.2" font-family="Arial" font-size="11.00">Governed ingestion</text>
<text text-anchor="middle" x="840" y="-344.2" font-family="Arial" font-size="11.00">Docling + Crawl4AI</text>
</g>
<!-- ingest&#45;&gt;pg -->
<g id="edge17" class="edge">
<title>ingest&#45;&gt;pg</title>
<path fill="none" stroke="#66737d" stroke-width="1.2" stroke-dasharray="5,2" d="M779.63,-333.91C725.76,-317.76 646.95,-294.15 590.9,-277.35"/>
<polygon fill="#66737d" stroke="#66737d" stroke-width="1.2" points="591.61,-274.64 583.15,-275.03 590.01,-280 591.61,-274.64"/>
</g>
<!-- ingest&#45;&gt;qd -->
<g id="edge18" class="edge">
<title>ingest&#45;&gt;qd</title>
<path fill="none" stroke="#66737d" stroke-width="1.2" stroke-dasharray="5,2" d="M834.79,-333.68C830.72,-319.36 825.01,-299.25 820.45,-283.22"/>
<polygon fill="#66737d" stroke="#66737d" stroke-width="1.2" points="823.07,-282.19 818.19,-275.26 817.68,-283.72 823.07,-282.19"/>
</g>
<!-- ingest&#45;&gt;lr -->
<g id="edge19" class="edge">
<title>ingest&#45;&gt;lr</title>
<path fill="none" stroke="#66737d" stroke-width="1.2" stroke-dasharray="5,2" d="M877.14,-333.91C909.4,-318.19 956.19,-295.4 990.45,-278.7"/>
<polygon fill="#66737d" stroke="#66737d" stroke-width="1.2" points="992.04,-281.05 998,-275.03 989.58,-276.01 992.04,-281.05"/>
</g>
<!-- control -->
<g id="node16" class="node">
<title>control</title>
<path fill="#f7e8f1" stroke="#5b6770" stroke-width="1.2" d="M1515.5,-275C1515.5,-275 1152.5,-275 1152.5,-275 1146.5,-275 1140.5,-269 1140.5,-263 1140.5,-263 1140.5,-249 1140.5,-249 1140.5,-243 1146.5,-237 1152.5,-237 1152.5,-237 1515.5,-237 1515.5,-237 1521.5,-237 1527.5,-243 1527.5,-249 1527.5,-249 1527.5,-263 1527.5,-263 1527.5,-269 1521.5,-275 1515.5,-275"/>
<text text-anchor="middle" x="1334" y="-259.2" font-family="Arial" font-size="11.00">Cross&#45;cutting controls</text>
<text text-anchor="middle" x="1334" y="-247.2" font-family="Arial" font-size="11.00">Identity • authorization • human approval • audit • observability • provenance</text>
</g>
<!-- control&#45;&gt;tools -->
<g id="edge20" class="edge">
<title>control&#45;&gt;tools</title>
<path fill="none" stroke="#66737d" stroke-width="1.2" stroke-dasharray="5,2" d="M1281.25,-236.95C1245.27,-224.63 1197.8,-208.39 1161.81,-196.07"/>
</g>
<!-- control&#45;&gt;apis -->
<g id="edge21" class="edge">
<title>control&#45;&gt;apis</title>
<path fill="none" stroke="#66737d" stroke-width="1.2" stroke-dasharray="5,2" d="M1333.15,-236.95C1331.38,-216.17 1325.89,-181.84 1309,-158 1296.67,-140.59 1277.44,-126.84 1260.11,-117.01"/>
</g>
</g>
</svg>
